<svg width="16" height="17" viewBox="0 0 16 17" fill="none" xmlns="http://www.w3.org/2000/svg">
<g clip-path="url(#clip0_1406_1527)">
<path d="M10.0336 3.83341C10.6848 3.96046 11.2832 4.27892 11.7523 4.74804C12.2214 5.21716 12.5399 5.81559 12.6669 6.46675M10.0336 1.16675C11.3865 1.31704 12.648 1.92286 13.6111 2.88475C14.5742 3.84664 15.1816 5.10742 15.3336 6.46008M14.6669 11.7801V13.7801C14.6677 13.9657 14.6297 14.1495 14.5553 14.3196C14.4809 14.4898 14.3718 14.6425 14.235 14.768C14.0982 14.8935 13.9367 14.9891 13.7608 15.0486C13.5849 15.108 13.3985 15.1301 13.2136 15.1134C11.1622 14.8905 9.19161 14.1895 7.46028 13.0667C5.8495 12.0432 4.48384 10.6775 3.46028 9.06675C2.3336 7.32755 1.63244 5.34741 1.41361 3.28675C1.39695 3.10239 1.41886 2.91659 1.47795 2.74116C1.53703 2.56574 1.63199 2.40454 1.75679 2.26783C1.88159 2.13112 2.03348 2.02189 2.20281 1.9471C2.37213 1.8723 2.55517 1.83359 2.74028 1.83341H4.74028C5.06382 1.83023 5.37748 1.9448 5.62279 2.15577C5.8681 2.36674 6.02833 2.65971 6.07361 2.98008C6.15803 3.62013 6.31458 4.24857 6.54028 4.85341C6.62998 5.09203 6.64939 5.35136 6.59622 5.60067C6.54305 5.84998 6.41952 6.07882 6.24028 6.26008L5.39361 7.10675C6.34265 8.77578 7.72458 10.1577 9.39361 11.1067L10.2403 10.2601C10.4215 10.0808 10.6504 9.95731 10.8997 9.90414C11.149 9.85097 11.4083 9.87039 11.6469 9.96008C12.2518 10.1858 12.8802 10.3423 13.5203 10.4267C13.8441 10.4724 14.1399 10.6356 14.3513 10.8851C14.5627 11.1346 14.6751 11.4531 14.6669 11.7801Z" stroke="#333D4C" stroke-width="1.3" stroke-linecap="round" stroke-linejoin="round"/>
</g>
<defs>
<clipPath id="clip0_1406_1527">
<rect width="16" height="16" fill="white" transform="translate(0 0.5)"/>
</clipPath>
</defs>
</svg>
