<svg width="14" height="14" viewBox="0 0 14 14" fill="none" xmlns="http://www.w3.org/2000/svg">
<path d="M8.75 1.75H12.25V5.25" stroke="white" stroke-linecap="square"/>
<path d="M5.25 12.25H1.75V8.75" stroke="white" stroke-linecap="square"/>
<path d="M12.6029 2.10355C12.7982 1.90829 12.7982 1.59171 12.6029 1.39645C12.4076 1.20118 12.0911 1.20118 11.8958 1.39645L12.6029 2.10355ZM7.81246 5.47978L7.45891 5.83333L8.16602 6.54044L8.51957 6.18689L7.81246 5.47978ZM11.8958 1.39645L7.81246 5.47978L8.51957 6.18689L12.6029 2.10355L11.8958 1.39645Z" fill="white"/>
<path d="M1.39645 11.8963C1.20118 12.0915 1.20118 12.4081 1.39645 12.6034C1.59171 12.7987 1.90829 12.7987 2.10355 12.6034L1.39645 11.8963ZM6.18689 8.52006L6.54044 8.1665L5.83333 7.4594L5.47978 7.81295L6.18689 8.52006ZM2.10355 12.6034L6.18689 8.52006L5.47978 7.81295L1.39645 11.8963L2.10355 12.6034Z" fill="white"/>
</svg>
