<svg width="19" height="19" viewBox="0 0 19 19" fill="none" xmlns="http://www.w3.org/2000/svg">
<g clip-path="url(#clip0_1406_1532)">
<path d="M16.25 8C16.25 13.25 9.5 17.75 9.5 17.75C9.5 17.75 2.75 13.25 2.75 8C2.75 6.20979 3.46116 4.4929 4.72703 3.22703C5.9929 1.96116 7.70979 1.25 9.5 1.25C11.2902 1.25 13.0071 1.96116 14.273 3.22703C15.5388 4.4929 16.25 6.20979 16.25 8Z" stroke="white" stroke-width="1.3" stroke-linecap="round" stroke-linejoin="round"/>
<path d="M9.5 10.25C10.7426 10.25 11.75 9.24264 11.75 8C11.75 6.75736 10.7426 5.75 9.5 5.75C8.25736 5.75 7.25 6.75736 7.25 8C7.25 9.24264 8.25736 10.25 9.5 10.25Z" stroke="white" stroke-width="1.3" stroke-linecap="round" stroke-linejoin="round"/>
</g>
<defs>
<clipPath id="clip0_1406_1532">
<rect width="18" height="18" fill="white" transform="translate(0.5 0.5)"/>
</clipPath>
</defs>
</svg>
