<svg width="98" height="29" viewBox="0 0 98 29" fill="none" xmlns="http://www.w3.org/2000/svg">
<path d="M4.56912 9.63102C3.57297 9.63102 2.73324 9.4499 2.04993 9.08767C1.37485 8.7172 0.864428 8.19854 0.518657 7.53169C0.172886 6.85662 0 6.0704 0 5.17304C0 4.25099 0.185234 3.45242 0.555703 2.77734C0.934405 2.10227 1.47776 1.57949 2.18577 1.20902C2.89377 0.838555 3.74174 0.65332 4.72965 0.65332C5.36357 0.65332 5.91927 0.735647 6.39677 0.900299C6.88249 1.05672 7.30647 1.28312 7.66871 1.57949L7.05126 3.07372C6.78782 2.88437 6.54084 2.73618 6.31032 2.62915C6.07981 2.5139 5.84106 2.43569 5.59408 2.39452C5.3471 2.34513 5.06308 2.32043 4.742 2.32043C3.83641 2.32043 3.1531 2.56741 2.69207 3.06137C2.23928 3.5471 2.01288 4.2551 2.01288 5.18539C2.01288 6.10745 2.22693 6.80722 2.65503 7.28472C3.08313 7.76221 3.75409 8.00096 4.66791 8.00096C4.97252 8.00096 5.28536 7.97214 5.60643 7.91451C5.9275 7.85688 6.24446 7.77044 6.5573 7.65519L6.21153 8.39612V6.04982H4.29744V4.67908H7.80455V8.95183C7.36822 9.16588 6.86191 9.33465 6.28562 9.45813C5.71757 9.57339 5.1454 9.63102 4.56912 9.63102Z" fill="#333D4C"/>
<path d="M8.72358 9.49518V0.789159H14.7746V2.28338H10.5636V4.32096H14.4782V5.82754H10.5636V8.00096H14.7746V9.49518H8.72358Z" fill="#333D4C"/>
<path d="M18.8862 9.63102C18.1864 9.63102 17.5319 9.54458 16.9227 9.37169C16.3135 9.19881 15.7948 8.96006 15.3667 8.65545L15.9348 7.14888C16.2147 7.33823 16.5111 7.49876 16.8239 7.63049C17.1368 7.76221 17.4661 7.86512 17.8118 7.93921C18.1576 8.00507 18.5198 8.038 18.8985 8.038C19.4913 8.038 19.9112 7.94744 20.1581 7.76633C20.4133 7.58521 20.541 7.35469 20.541 7.07478C20.541 6.81957 20.4545 6.6261 20.2816 6.49438C20.117 6.35443 19.8124 6.23505 19.3678 6.13626L17.9106 5.83989C17.1121 5.67523 16.5152 5.39532 16.12 5.00016C15.7249 4.60499 15.5273 4.0781 15.5273 3.41949C15.5273 2.85967 15.6755 2.37394 15.9718 1.96231C16.2682 1.55068 16.684 1.22961 17.2191 0.999091C17.7624 0.768577 18.3964 0.65332 19.1208 0.65332C19.7383 0.65332 20.3146 0.739763 20.8497 0.912648C21.3848 1.08553 21.8252 1.33251 22.171 1.65359L21.603 3.06137C21.2654 2.78969 20.8867 2.58799 20.4669 2.45627C20.0552 2.31631 19.5942 2.24634 19.0838 2.24634C18.5487 2.24634 18.137 2.34101 17.8489 2.53036C17.569 2.71971 17.429 2.97904 17.429 3.30835C17.429 3.55533 17.5155 3.75703 17.6883 3.91345C17.8612 4.06164 18.1658 4.18101 18.6022 4.27157L20.0346 4.55559C20.8497 4.72025 21.4548 4.99604 21.8499 5.38298C22.2451 5.76991 22.4427 6.28445 22.4427 6.9266C22.4427 7.46995 22.2945 7.94333 21.9981 8.34673C21.71 8.75013 21.2984 9.06708 20.7632 9.2976C20.2363 9.51988 19.6107 9.63102 18.8862 9.63102Z" fill="#333D4C"/>
<path d="M26.8699 9.63102C25.5938 9.63102 24.643 9.31406 24.0173 8.68015C23.3916 8.04624 23.0788 7.1036 23.0788 5.85224V0.789159H25.0052V5.86458C25.0052 6.56436 25.1534 7.09536 25.4498 7.4576C25.7544 7.81984 26.2278 8.00096 26.8699 8.00096C27.4956 8.00096 27.9607 7.81984 28.2653 7.4576C28.5782 7.09536 28.7346 6.56436 28.7346 5.86458V0.789159H30.6363V5.85224C30.6363 7.1036 30.3194 8.04624 29.6855 8.68015C29.0598 9.31406 28.1213 9.63102 26.8699 9.63102Z" fill="#333D4C"/>
<path d="M31.4848 9.49518V0.789159H32.9172L37.6469 6.80311H37.3135V0.789159H39.1041V9.49518H37.6716L32.9543 3.48123H33.2754V9.49518H31.4848Z" fill="#333D4C"/>
<path d="M40.0102 9.49518V0.789159H43.3321C44.3447 0.789159 45.2009 0.962044 45.9006 1.30782C46.6004 1.65359 47.1273 2.15166 47.4813 2.80204C47.8435 3.44419 48.0247 4.22217 48.0247 5.136C48.0247 6.04159 47.8435 6.81957 47.4813 7.46995C47.1273 8.12033 46.6004 8.62252 45.9006 8.97652C45.2009 9.3223 44.3447 9.49518 43.3321 9.49518H40.0102ZM41.9366 7.91451H43.2209C44.1924 7.91451 44.9127 7.68812 45.382 7.23532C45.8595 6.77429 46.0982 6.07452 46.0982 5.136C46.0982 4.18924 45.8595 3.48947 45.382 3.03667C44.9127 2.58388 44.1924 2.35748 43.2209 2.35748H41.9366V7.91451Z" fill="#333D4C"/>
<path d="M48.6803 9.49518V0.789159H50.6068V4.28392H54.5955V0.789159H56.5343V9.49518H54.5955V5.87693H50.6068V9.49518H48.6803Z" fill="#333D4C"/>
<path d="M57.4469 9.49518V0.789159H63.4979V2.28338H59.2869V4.32096H63.2015V5.82754H59.2869V8.00096H63.4979V9.49518H57.4469Z" fill="#333D4C"/>
<path d="M64.222 9.49518V0.789159H66.1484V9.49518H64.222Z" fill="#333D4C"/>
<path d="M69.5471 9.49518V2.35748H66.7809V0.789159H74.2397V2.35748H71.4735V9.49518H69.5471Z" fill="#333D4C"/>
<path d="M77.7821 9.63102C77.0823 9.63102 76.4278 9.54458 75.8186 9.37169C75.2094 9.19881 74.6907 8.96006 74.2626 8.65545L74.8307 7.14888C75.1106 7.33823 75.407 7.49876 75.7198 7.63049C76.0327 7.76221 76.362 7.86512 76.7077 7.93921C77.0535 8.00507 77.4157 8.038 77.7944 8.038C78.3872 8.038 78.8071 7.94744 79.054 7.76633C79.3092 7.58521 79.4369 7.35469 79.4369 7.07478C79.4369 6.81957 79.3504 6.6261 79.1775 6.49438C79.0129 6.35443 78.7083 6.23505 78.2637 6.13626L76.8065 5.83989C76.008 5.67523 75.4111 5.39532 75.0159 5.00016C74.6208 4.60499 74.4232 4.0781 74.4232 3.41949C74.4232 2.85967 74.5714 2.37394 74.8678 1.96231C75.1641 1.55068 75.5799 1.22961 76.115 0.999091C76.6583 0.768577 77.2923 0.65332 78.0167 0.65332C78.6342 0.65332 79.2105 0.739763 79.7456 0.912648C80.2807 1.08553 80.7212 1.33251 81.0669 1.65359L80.4989 3.06137C80.1613 2.78969 79.7826 2.58799 79.3628 2.45627C78.9511 2.31631 78.4901 2.24634 77.9797 2.24634C77.4446 2.24634 77.0329 2.34101 76.7448 2.53036C76.4649 2.71971 76.3249 2.97904 76.3249 3.30835C76.3249 3.55533 76.4114 3.75703 76.5843 3.91345C76.7571 4.06164 77.0618 4.18101 77.4981 4.27157L78.9306 4.55559C79.7456 4.72025 80.3507 4.99604 80.7458 5.38298C81.141 5.76991 81.3386 6.28445 81.3386 6.9266C81.3386 7.46995 81.1904 7.94333 80.894 8.34673C80.6059 8.75013 80.1943 9.06708 79.6591 9.2976C79.1322 9.51988 78.5066 9.63102 77.7821 9.63102Z" fill="#333D4C"/>
<path d="M0 20.5236V11.8176H1.43248L6.16213 17.8316H5.82871V11.8176H7.61931V20.5236H6.18683L1.46953 14.5097H1.7906V20.5236H0Z" fill="#333D4C"/>
<path d="M19.9293 20.5236V13.3859H17.1632V11.8176H24.6219V13.3859H21.8558V20.5236H19.9293Z" fill="#333D4C"/>
<path d="M25.173 20.5236V11.8176H31.0882V13.3119H27.0995V15.4359H30.8041V16.9177H27.0995V20.5236H25.173Z" fill="#333D4C"/>
<path d="M30.0186 20.5236L34.0197 11.8176H35.6127L39.6632 20.5236H37.712L36.6624 18.1032L37.4157 18.6343H32.2414L33.0071 18.1032L31.9574 20.5236H30.0186ZM34.81 13.8429L33.217 17.6216L32.8836 17.1524H36.7735L36.4895 17.6216L34.8594 13.8429H34.81Z" fill="#333D4C"/>
<path d="M40.0359 20.5236V11.8176H41.9623V18.9059H45.8893V20.5236H40.0359Z" fill="#333D4C"/>
<path d="M46.4491 20.5236V11.8176H48.3756V18.9059H52.3025V20.5236H46.4491Z" fill="#333D4C"/>
<path fill-rule="evenodd" clip-rule="evenodd" d="M17.3891 16.0559C17.3891 18.5685 15.3522 20.6054 12.8395 20.6054C10.3269 20.6054 8.29004 18.5685 8.29004 16.0559C8.29004 13.5432 10.3269 11.5063 12.8395 11.5063C15.3522 11.5063 17.3891 13.5432 17.3891 16.0559ZM16.3499 15.3057V16.8024H13.5867V19.5657H12.09L12.09 16.8024H9.44192L9.44192 15.3057H12.09L12.09 12.6577L13.5867 12.6577V15.3057H16.3499Z" fill="#DC3B3B"/>
<path d="M56.1494 20.5235V11.8175H60.2122C61.1919 11.8175 61.9328 12.0562 62.435 12.5337C62.9455 13.003 63.2007 13.6492 63.2007 14.4725C63.2007 15.2875 62.9455 15.9379 62.435 16.4236C61.9328 16.9011 61.1919 17.1399 60.2122 17.1399H58.0759V20.5235H56.1494ZM58.0759 15.6457H59.9652C60.4263 15.6457 60.7679 15.5428 60.9902 15.3369C61.2207 15.1311 61.336 14.843 61.336 14.4725C61.336 14.102 61.2207 13.818 60.9902 13.6204C60.7679 13.4146 60.4263 13.3117 59.9652 13.3117H58.0759V15.6457Z" fill="#333D4C"/>
<path d="M63.8651 20.5235V11.8175H67.8168C68.7965 11.8175 69.5539 12.0521 70.089 12.5214C70.6241 12.9824 70.8917 13.6287 70.8917 14.4602C70.8917 15.0035 70.7682 15.4728 70.5212 15.8679C70.2825 16.2549 69.9367 16.5554 69.4839 16.7694C69.0393 16.9752 68.5042 17.0781 67.8785 17.0781L68.0267 16.8065H68.533C68.887 16.8065 69.1999 16.9011 69.4715 17.0905C69.7514 17.2798 69.982 17.5556 70.1631 17.9179L71.4597 20.5235H69.3357L67.9897 17.7203C67.8909 17.4815 67.7344 17.3251 67.5204 17.251C67.3146 17.1687 67.0758 17.1275 66.8042 17.1275H65.7915V20.5235H63.8651ZM65.7915 15.7445H67.4834C67.9855 15.7445 68.3684 15.6415 68.6318 15.4357C68.8953 15.2299 69.027 14.9253 69.027 14.5219C69.027 14.1185 68.8953 13.818 68.6318 13.6204C68.3684 13.4146 67.9855 13.3117 67.4834 13.3117H65.7915V15.7445Z" fill="#333D4C"/>
<path d="M70.797 20.5235L74.7981 11.8175H76.3911L80.4416 20.5235H78.4904L77.4408 18.1031L78.1941 18.6341H73.0198L73.7855 18.1031L72.7358 20.5235H70.797ZM75.5884 13.8427L73.9954 17.6215L73.662 17.1522H77.5519L77.2679 17.6215L75.6378 13.8427H75.5884Z" fill="#333D4C"/>
<path d="M79.3066 20.5235L82.9496 15.6827V16.5348L79.4054 11.8175H81.6653L84.0363 15.1394H83.4188L85.8022 11.8175H88.062L84.5055 16.5348V15.6827L88.1732 20.5235H85.901L83.4188 17.0781H84.0486L81.5541 20.5235H80.4304H79.3066Z" fill="#333D4C"/>
<path d="M88.5773 20.5235V11.8175H90.5037V20.5235H88.5773Z" fill="#333D4C"/>
<path d="M94.4399 20.6593C93.7401 20.6593 93.0856 20.5729 92.4764 20.4C91.8672 20.2271 91.3485 19.9884 90.9204 19.6838L91.4885 18.1772C91.7684 18.3665 92.0648 18.5271 92.3776 18.6588C92.6905 18.7905 93.0198 18.8934 93.3655 18.9675C93.7113 19.0334 94.0735 19.0663 94.4522 19.0663C95.045 19.0663 95.4649 18.9758 95.7118 18.7946C95.9671 18.6135 96.0947 18.383 96.0947 18.1031C96.0947 17.8479 96.0082 17.6544 95.8353 17.5227C95.6707 17.3827 95.3661 17.2634 94.9215 17.1646L93.4643 16.8682C92.6658 16.7036 92.0689 16.4236 91.6737 16.0285C91.2786 15.6333 91.081 15.1064 91.081 14.4478C91.081 13.888 91.2292 13.4023 91.5255 12.9906C91.8219 12.579 92.2377 12.2579 92.7728 12.0274C93.3161 11.7969 93.9501 11.6816 94.6745 11.6816C95.292 11.6816 95.8683 11.7681 96.4034 11.941C96.9385 12.1139 97.3789 12.3608 97.7247 12.6819L97.1567 14.0897C96.8191 13.818 96.4404 13.6163 96.0206 13.4846C95.6089 13.3446 95.1479 13.2747 94.6375 13.2747C94.1024 13.2747 93.6907 13.3693 93.4026 13.5587C93.1227 13.748 92.9827 14.0074 92.9827 14.3367C92.9827 14.5836 93.0692 14.7853 93.242 14.9418C93.4149 15.09 93.7195 15.2093 94.1559 15.2999L95.5883 15.5839C96.4034 15.7486 97.0085 16.0244 97.4036 16.4113C97.7988 16.7982 97.9964 17.3128 97.9964 17.9549C97.9964 18.4983 97.8482 18.9716 97.5518 19.375C97.2637 19.7784 96.8521 20.0954 96.3169 20.3259C95.79 20.5482 95.1644 20.6593 94.4399 20.6593Z" fill="#333D4C"/>
<path d="M97.4067 9.54655C97.028 9.43952 96.6575 9.27899 96.2953 9.06494C95.9413 8.85089 95.6078 8.61214 95.295 8.3487L95.6902 8.36105C95.295 8.72328 94.8463 9.01143 94.3441 9.22547C93.842 9.43952 93.3151 9.54655 92.7635 9.54655C92.1049 9.54655 91.5327 9.44364 91.047 9.23782C90.5695 9.03201 90.199 8.74798 89.9356 8.38574C89.6803 8.02351 89.5527 7.59953 89.5527 7.1138C89.5527 6.55398 89.7174 6.07649 90.0467 5.68132C90.376 5.28615 90.8165 4.93215 91.368 4.61931L91.8002 4.39703L91.5162 4.7428C91.1787 4.42173 90.9235 4.09654 90.7506 3.76723C90.5777 3.42969 90.4913 3.08392 90.4913 2.72992C90.4913 2.30182 90.5983 1.92723 90.8123 1.60616C91.0346 1.27685 91.3392 1.02164 91.7262 0.840525C92.1131 0.659407 92.57 0.568848 93.0969 0.568848C93.7802 0.568848 94.3318 0.749966 94.7517 1.1122C95.1798 1.46621 95.3938 1.94782 95.3938 2.55703C95.3938 2.8781 95.3279 3.1786 95.1962 3.45851C95.0727 3.73842 94.8751 4.00186 94.6035 4.24884C94.3318 4.48759 94.0313 4.35998 93.6032 4.58226L95.6284 6.60749H95.2456C95.4597 6.26995 95.6243 5.88714 95.7396 5.45904C95.8548 5.03094 95.9248 4.58226 95.9495 4.113H97.4931C97.4602 4.78808 97.3449 5.43022 97.1473 6.03944C96.9498 6.64042 96.6822 7.17555 96.3447 7.64481L96.3323 7.22494C96.5628 7.45546 96.818 7.65304 97.098 7.81769C97.3779 7.98235 97.6784 8.11407 97.9994 8.21286L97.4067 9.54655ZM92.8746 8.11407C93.2368 8.11407 93.562 8.04821 93.8502 7.91648C94.1383 7.78476 94.4018 7.59129 94.6405 7.33608L94.6035 7.7436L92.0596 5.26146L92.8376 5.2738L92.4918 5.44669C92.253 5.58664 92.0513 5.73483 91.8867 5.89125C91.722 6.03944 91.5986 6.20409 91.5162 6.38521C91.4339 6.56633 91.3927 6.76803 91.3927 6.99031C91.3927 7.33608 91.5203 7.61188 91.7756 7.81769C92.039 8.01528 92.4053 8.11407 92.8746 8.11407ZM93.0969 1.80374C92.817 1.80374 92.5947 1.88607 92.43 2.05072C92.2654 2.20714 92.1831 2.42119 92.1831 2.69287C92.1831 2.83282 92.2078 2.96866 92.2572 3.10039C92.3148 3.23211 92.4054 3.37206 92.5288 3.52025C92.6523 3.66021 92.8087 3.83309 92.9981 4.03891L92.5782 4.05126C93.0557 3.82074 93.4015 3.59846 93.6155 3.38441C93.8378 3.17036 93.949 2.91927 93.949 2.63113C93.949 2.35945 93.8708 2.15363 93.7143 2.01368C93.5579 1.87372 93.3521 1.80374 93.0969 1.80374Z" fill="#333D4C"/>
<path d="M1.14334 27.3243H0V23.5967H1.19399C1.55339 23.5967 1.86094 23.6713 2.11662 23.8206C2.3723 23.9686 2.56829 24.1816 2.70457 24.4594C2.84085 24.7361 2.909 25.0674 2.909 25.4532C2.909 25.8415 2.84025 26.1758 2.70276 26.4561C2.56527 26.7352 2.36507 26.95 2.10215 27.1004C1.83923 27.2497 1.51962 27.3243 1.14334 27.3243ZM0.448651 26.9239H1.11439C1.42073 26.9239 1.6746 26.8644 1.87601 26.7455C2.07742 26.6266 2.22758 26.4573 2.32647 26.2377C2.42537 26.0181 2.47482 25.7566 2.47482 25.4532C2.47482 25.1523 2.42597 24.8932 2.32828 24.676C2.23059 24.4576 2.08466 24.2902 1.89049 24.1737C1.69631 24.056 1.4545 23.9971 1.16505 23.9971H0.448651V26.9239Z" fill="#333D4C"/>
<path d="M3.6801 27.3243V24.5286H4.10704V27.3243H3.6801ZM3.89719 24.0627C3.81397 24.0627 3.74221 24.0341 3.68191 23.9771C3.62281 23.9201 3.59326 23.8515 3.59326 23.7714C3.59326 23.6914 3.62281 23.6228 3.68191 23.5658C3.74221 23.5087 3.81397 23.4802 3.89719 23.4802C3.9804 23.4802 4.05156 23.5087 4.11066 23.5658C4.17096 23.6228 4.20111 23.6914 4.20111 23.7714C4.20111 23.8515 4.17096 23.9201 4.11066 23.9771C4.05156 24.0341 3.9804 24.0627 3.89719 24.0627Z" fill="#333D4C"/>
<path d="M6.13047 27.3825C5.86273 27.3825 5.63177 27.3231 5.4376 27.2042C5.24463 27.084 5.09568 26.9166 4.99075 26.7018C4.88703 26.4858 4.83517 26.2347 4.83517 25.9483C4.83517 25.6619 4.88703 25.4095 4.99075 25.1911C5.09568 24.9715 5.24161 24.8004 5.42855 24.6779C5.61669 24.5541 5.8362 24.4922 6.08705 24.4922C6.23178 24.4922 6.3747 24.5165 6.51581 24.565C6.65691 24.6135 6.78536 24.6924 6.90114 24.8016C7.01692 24.9096 7.10918 25.0528 7.17793 25.2312C7.24667 25.4095 7.28105 25.6292 7.28105 25.8901V26.0721H5.1391V25.7008H6.84687C6.84687 25.543 6.81551 25.4023 6.7528 25.2785C6.69129 25.1547 6.60324 25.057 6.48867 24.9855C6.3753 24.9139 6.24143 24.8781 6.08705 24.8781C5.917 24.8781 5.76986 24.9205 5.64564 25.0055C5.52262 25.0892 5.42795 25.1984 5.36162 25.3331C5.29528 25.4678 5.26212 25.6122 5.26212 25.7663V26.0138C5.26212 26.225 5.2983 26.4039 5.37066 26.5508C5.44423 26.6964 5.54614 26.8074 5.67639 26.8838C5.80665 26.9591 5.95801 26.9967 6.13047 26.9967C6.24264 26.9967 6.34394 26.9809 6.4344 26.9494C6.52606 26.9166 6.60505 26.8681 6.67139 26.8038C6.73772 26.7382 6.78898 26.6569 6.82516 26.5599L7.23763 26.6763C7.19421 26.8171 7.12124 26.9409 7.01873 27.0476C6.91621 27.1532 6.78958 27.2357 6.63882 27.2952C6.48807 27.3534 6.31862 27.3825 6.13047 27.3825Z" fill="#333D4C"/>
<path d="M9.57401 27.3243V23.5967H11.7956V23.9971H10.0227V25.2567H11.6291V25.6571H10.0227V27.3243H9.57401Z" fill="#333D4C"/>
<path d="M13.4002 27.3898C13.2241 27.3898 13.0643 27.3565 12.9208 27.2897C12.7773 27.2218 12.6633 27.1241 12.5789 26.9967C12.4944 26.8681 12.4522 26.7127 12.4522 26.5307C12.4522 26.3706 12.4836 26.2407 12.5463 26.1412C12.609 26.0405 12.6928 25.9616 12.7978 25.9046C12.9027 25.8476 13.0185 25.8051 13.1451 25.7772C13.273 25.7481 13.4014 25.725 13.5304 25.708C13.6993 25.6862 13.8362 25.6698 13.9411 25.6589C14.0472 25.6468 14.1244 25.6267 14.1727 25.5988C14.2221 25.5709 14.2468 25.5224 14.2468 25.4532V25.4387C14.2468 25.2591 14.198 25.1195 14.1003 25.02C14.0038 24.9205 13.8573 24.8708 13.6607 24.8708C13.4569 24.8708 13.2971 24.9157 13.1813 25.0055C13.0655 25.0953 12.9841 25.1911 12.9371 25.2931L12.5318 25.1474C12.6042 24.9776 12.7007 24.8453 12.8213 24.7507C12.9431 24.6548 13.0758 24.5881 13.2193 24.5505C13.364 24.5116 13.5063 24.4922 13.6462 24.4922C13.7355 24.4922 13.838 24.5031 13.9538 24.525C14.0708 24.5456 14.1835 24.5887 14.2921 24.6542C14.4018 24.7197 14.4929 24.8186 14.5652 24.9509C14.6376 25.0831 14.6738 25.2603 14.6738 25.4823V27.3243H14.2468V26.9457H14.2251C14.1962 27.0064 14.1479 27.0713 14.0804 27.1405C14.0129 27.2096 13.923 27.2685 13.8109 27.317C13.6987 27.3656 13.5618 27.3898 13.4002 27.3898ZM13.4653 27.004C13.6342 27.004 13.7765 26.9706 13.8923 26.9039C14.0092 26.8371 14.0973 26.751 14.1564 26.6454C14.2167 26.5398 14.2468 26.4288 14.2468 26.3123V25.9192C14.2288 25.941 14.189 25.961 14.1274 25.9792C14.0671 25.9962 13.9972 26.0114 13.9176 26.0247C13.8392 26.0369 13.7626 26.0478 13.6878 26.0575C13.6143 26.066 13.5546 26.0733 13.5087 26.0793C13.3978 26.0939 13.2941 26.1176 13.1976 26.1503C13.1023 26.1819 13.0251 26.2298 12.966 26.2941C12.9081 26.3572 12.8792 26.4434 12.8792 26.5526C12.8792 26.7018 12.9341 26.8147 13.0438 26.8911C13.1548 26.9663 13.2953 27.004 13.4653 27.004Z" fill="#333D4C"/>
<path d="M16.6583 27.3825C16.3978 27.3825 16.1735 27.3207 15.9853 27.1969C15.7972 27.0731 15.6525 26.9026 15.5512 26.6854C15.4499 26.4682 15.3992 26.2201 15.3992 25.941C15.3992 25.6571 15.4511 25.4065 15.5548 25.1893C15.6597 24.9709 15.8056 24.8004 15.9926 24.6779C16.1807 24.5541 16.4002 24.4922 16.6511 24.4922C16.8465 24.4922 17.0226 24.5286 17.1793 24.6014C17.3361 24.6742 17.4646 24.7761 17.5647 24.9072C17.6648 25.0382 17.7269 25.1911 17.751 25.3659H17.3241C17.2915 25.2385 17.2191 25.1256 17.107 25.0273C16.996 24.9278 16.8465 24.8781 16.6583 24.8781C16.4919 24.8781 16.346 24.9218 16.2205 25.0091C16.0963 25.0953 15.9992 25.2172 15.9293 25.375C15.8605 25.5315 15.8261 25.7153 15.8261 25.9265C15.8261 26.1424 15.8599 26.3305 15.9275 26.4907C15.9962 26.6509 16.0927 26.7752 16.2169 26.8638C16.3423 26.9524 16.4895 26.9967 16.6583 26.9967C16.7693 26.9967 16.87 26.9773 16.9604 26.9384C17.0509 26.8996 17.1275 26.8438 17.1902 26.771C17.2529 26.6982 17.2975 26.6108 17.3241 26.5089H17.751C17.7269 26.6739 17.6672 26.8226 17.5719 26.9548C17.4778 27.0859 17.353 27.1902 17.1974 27.2679C17.0431 27.3443 16.8634 27.3825 16.6583 27.3825Z" fill="#333D4C"/>
<path d="M18.8785 25.6425V27.3243H18.4516V23.5967H18.8785V24.9654H18.9147C18.9798 24.821 19.0775 24.7064 19.2077 24.6214C19.3392 24.5353 19.5141 24.4922 19.7324 24.4922C19.9217 24.4922 20.0876 24.5304 20.2299 24.6069C20.3722 24.6821 20.4825 24.798 20.5609 24.9545C20.6405 25.1098 20.6803 25.3076 20.6803 25.5479V27.3243H20.2534V25.577C20.2534 25.3549 20.1961 25.1832 20.0815 25.0619C19.9682 24.9393 19.8108 24.8781 19.6094 24.8781C19.4695 24.8781 19.344 24.9078 19.2331 24.9673C19.1233 25.0267 19.0365 25.1135 18.9726 25.2275C18.9099 25.3416 18.8785 25.4799 18.8785 25.6425Z" fill="#333D4C"/>
<path d="M23.1298 25.526V25.9265H21.5089V25.526H23.1298Z" fill="#333D4C"/>
<path d="M27.2178 26.1813V24.5286H27.6448V27.3243H27.2178V26.8511H27.1889C27.1238 26.993 27.0225 27.1138 26.885 27.2133C26.7475 27.3116 26.5738 27.3607 26.3639 27.3607C26.1903 27.3607 26.0359 27.3225 25.9008 27.246C25.7657 27.1684 25.6596 27.0519 25.5824 26.8966C25.5052 26.74 25.4666 26.5429 25.4666 26.305V24.5286H25.8936V26.2759C25.8936 26.4798 25.9503 26.6424 26.0636 26.7637C26.1782 26.8851 26.3241 26.9457 26.5014 26.9457C26.6076 26.9457 26.7155 26.9184 26.8253 26.8638C26.9362 26.8092 27.0291 26.7255 27.1039 26.6126C27.1798 26.4998 27.2178 26.356 27.2178 26.1813Z" fill="#333D4C"/>
<path d="M28.9301 25.6425V27.3243H28.5032V24.5286H28.9156V24.9654H28.9518C29.0169 24.8235 29.1158 24.7094 29.2485 24.6233C29.3812 24.5359 29.5524 24.4922 29.7623 24.4922C29.9504 24.4922 30.1151 24.531 30.2562 24.6087C30.3973 24.6851 30.507 24.8016 30.5854 24.9582C30.6638 25.1135 30.703 25.31 30.703 25.5479V27.3243H30.2761V25.577C30.2761 25.3574 30.2194 25.1863 30.106 25.0637C29.9926 24.94 29.8371 24.8781 29.6393 24.8781C29.503 24.8781 29.3812 24.9078 29.2738 24.9673C29.1677 25.0267 29.0839 25.1135 29.0224 25.2275C28.9609 25.3416 28.9301 25.4799 28.9301 25.6425Z" fill="#333D4C"/>
<path d="M32.6088 27.3825C32.3773 27.3825 32.1729 27.3237 31.9956 27.206C31.8183 27.0871 31.6796 26.9196 31.5795 26.7036C31.4794 26.4864 31.4293 26.2298 31.4293 25.9337C31.4293 25.6401 31.4794 25.3853 31.5795 25.1693C31.6796 24.9533 31.8189 24.7865 31.9974 24.6688C32.1759 24.5511 32.3821 24.4922 32.6161 24.4922C32.797 24.4922 32.9399 24.5225 33.0448 24.5832C33.151 24.6427 33.2318 24.7106 33.2873 24.7871C33.3439 24.8623 33.388 24.9242 33.4193 24.9727H33.4555V23.5967H33.8824V27.3243H33.47V26.8948H33.4193C33.388 26.9457 33.3433 27.01 33.2854 27.0877C33.2276 27.1641 33.1449 27.2327 33.0376 27.2934C32.9303 27.3528 32.7873 27.3825 32.6088 27.3825ZM32.6667 26.9967C32.838 26.9967 32.9827 26.9518 33.1009 26.862C33.2191 26.771 33.309 26.6454 33.3705 26.4852C33.432 26.3238 33.4627 26.1376 33.4627 25.9265C33.4627 25.7178 33.4326 25.5351 33.3723 25.3786C33.312 25.2209 33.2227 25.0983 33.1045 25.0109C32.9863 24.9224 32.8404 24.8781 32.6667 24.8781C32.4858 24.8781 32.3351 24.9248 32.2145 25.0182C32.0951 25.1104 32.0052 25.236 31.9449 25.395C31.8858 25.5527 31.8563 25.7299 31.8563 25.9265C31.8563 26.1255 31.8864 26.3063 31.9467 26.4689C32.0082 26.6302 32.0987 26.7589 32.2181 26.8547C32.3387 26.9494 32.4882 26.9967 32.6667 26.9967Z" fill="#333D4C"/>
<path d="M36.3672 27.3243V23.5967H36.8158V25.2567H38.7913V23.5967H39.24V27.3243H38.7913V25.6571H36.8158V27.3243H36.3672Z" fill="#333D4C"/>
<path d="M40.9744 27.3898C40.7983 27.3898 40.6385 27.3565 40.495 27.2897C40.3515 27.2218 40.2375 27.1241 40.1531 26.9967C40.0687 26.8681 40.0265 26.7127 40.0265 26.5307C40.0265 26.3706 40.0578 26.2407 40.1205 26.1412C40.1832 26.0405 40.2671 25.9616 40.372 25.9046C40.4769 25.8476 40.5927 25.8051 40.7193 25.7772C40.8472 25.7481 40.9756 25.725 41.1047 25.708C41.2735 25.6862 41.4104 25.6698 41.5153 25.6589C41.6215 25.6468 41.6986 25.6267 41.7469 25.5988C41.7963 25.5709 41.8211 25.5224 41.8211 25.4532V25.4387C41.8211 25.2591 41.7722 25.1195 41.6745 25.02C41.578 24.9205 41.4315 24.8708 41.2349 24.8708C41.0311 24.8708 40.8713 24.9157 40.7555 25.0055C40.6397 25.0953 40.5583 25.1911 40.5113 25.2931L40.1061 25.1474C40.1784 24.9776 40.2749 24.8453 40.3955 24.7507C40.5173 24.6548 40.65 24.5881 40.7935 24.5505C40.9382 24.5116 41.0805 24.4922 41.2204 24.4922C41.3097 24.4922 41.4122 24.5031 41.528 24.525C41.645 24.5456 41.7577 24.5887 41.8663 24.6542C41.976 24.7197 42.0671 24.8186 42.1395 24.9509C42.2118 25.0831 42.248 25.2603 42.248 25.4823V27.3243H41.8211V26.9457H41.7994C41.7704 27.0064 41.7222 27.0713 41.6546 27.1405C41.5871 27.2096 41.4972 27.2685 41.3851 27.317C41.2729 27.3656 41.136 27.3898 40.9744 27.3898ZM41.0395 27.004C41.2084 27.004 41.3507 26.9706 41.4665 26.9039C41.5835 26.8371 41.6715 26.751 41.7306 26.6454C41.7909 26.5398 41.8211 26.4288 41.8211 26.3123V25.9192C41.803 25.941 41.7632 25.961 41.7017 25.9792C41.6414 25.9962 41.5714 26.0114 41.4918 26.0247C41.4134 26.0369 41.3368 26.0478 41.2621 26.0575C41.1885 26.066 41.1288 26.0733 41.083 26.0793C40.972 26.0939 40.8683 26.1176 40.7718 26.1503C40.6765 26.1819 40.5993 26.2298 40.5402 26.2941C40.4823 26.3572 40.4534 26.4434 40.4534 26.5526C40.4534 26.7018 40.5083 26.8147 40.618 26.8911C40.729 26.9663 40.8695 27.004 41.0395 27.004Z" fill="#333D4C"/>
<path d="M44.8549 26.1813V24.5286H45.2818V27.3243H44.8549V26.8511H44.8259C44.7608 26.993 44.6595 27.1138 44.522 27.2133C44.3845 27.3116 44.2108 27.3607 44.001 27.3607C43.8273 27.3607 43.6729 27.3225 43.5379 27.246C43.4028 27.1684 43.2966 27.0519 43.2195 26.8966C43.1423 26.74 43.1037 26.5429 43.1037 26.305V24.5286H43.5306V26.2759C43.5306 26.4798 43.5873 26.6424 43.7007 26.7637C43.8152 26.8851 43.9612 26.9457 44.1385 26.9457C44.2446 26.9457 44.3525 26.9184 44.4623 26.8638C44.5732 26.8092 44.6661 26.7255 44.7409 26.6126C44.8169 26.4998 44.8549 26.356 44.8549 26.1813Z" fill="#333D4C"/>
<path d="M48.1085 25.1547L47.7249 25.2639C47.7008 25.1996 47.6652 25.1371 47.6182 25.0765C47.5724 25.0146 47.5097 24.9636 47.4301 24.9236C47.3505 24.8835 47.2486 24.8635 47.1243 24.8635C46.9543 24.8635 46.8126 24.9029 46.6992 24.9818C46.587 25.0595 46.531 25.1584 46.531 25.2785C46.531 25.3853 46.5695 25.4696 46.6467 25.5315C46.7239 25.5934 46.8445 25.6449 47.0086 25.6862L47.421 25.7881C47.6695 25.8488 47.8546 25.9416 47.9764 26.0666C48.0982 26.1904 48.1591 26.3499 48.1591 26.5453C48.1591 26.7055 48.1133 26.8486 48.0216 26.9748C47.9312 27.101 47.8045 27.2005 47.6417 27.2733C47.4789 27.3461 47.2896 27.3825 47.0737 27.3825C46.7903 27.3825 46.5557 27.3207 46.3699 27.1969C46.1842 27.0731 46.0666 26.8923 46.0172 26.6545L46.4224 26.5526C46.461 26.703 46.534 26.8159 46.6413 26.8911C46.7499 26.9663 46.8916 27.004 47.0664 27.004C47.2654 27.004 47.4234 26.9615 47.5404 26.8766C47.6586 26.7904 47.7177 26.6873 47.7177 26.5671C47.7177 26.4701 47.6839 26.3888 47.6164 26.3232C47.5489 26.2565 47.4451 26.2068 47.3052 26.174L46.8421 26.0648C46.5876 26.0041 46.4007 25.9101 46.2813 25.7827C46.1631 25.654 46.104 25.4933 46.104 25.3003C46.104 25.1426 46.148 25.0031 46.2361 24.8817C46.3253 24.7604 46.4465 24.6651 46.5997 24.596C46.7541 24.5268 46.929 24.4922 47.1243 24.4922C47.3993 24.4922 47.6152 24.5529 47.772 24.6742C47.93 24.7956 48.0421 24.9557 48.1085 25.1547Z" fill="#333D4C"/>
<path d="M49.6959 27.3898C49.5198 27.3898 49.36 27.3565 49.2165 27.2897C49.073 27.2218 48.959 27.1241 48.8746 26.9967C48.7902 26.8681 48.748 26.7127 48.748 26.5307C48.748 26.3706 48.7793 26.2407 48.842 26.1412C48.9047 26.0405 48.9886 25.9616 49.0935 25.9046C49.1984 25.8476 49.3142 25.8051 49.4408 25.7772C49.5687 25.7481 49.6971 25.725 49.8262 25.708C49.995 25.6862 50.1319 25.6698 50.2368 25.6589C50.343 25.6468 50.4202 25.6267 50.4684 25.5988C50.5178 25.5709 50.5426 25.5224 50.5426 25.4532V25.4387C50.5426 25.2591 50.4937 25.1195 50.396 25.02C50.2995 24.9205 50.153 24.8708 49.9564 24.8708C49.7526 24.8708 49.5928 24.9157 49.477 25.0055C49.3612 25.0953 49.2798 25.1911 49.2328 25.2931L48.8276 25.1474C48.8999 24.9776 48.9964 24.8453 49.117 24.7507C49.2388 24.6548 49.3715 24.5881 49.515 24.5505C49.6597 24.5116 49.8021 24.4922 49.942 24.4922C50.0312 24.4922 50.1337 24.5031 50.2495 24.525C50.3665 24.5456 50.4792 24.5887 50.5878 24.6542C50.6975 24.7197 50.7886 24.8186 50.861 24.9509C50.9333 25.0831 50.9695 25.2603 50.9695 25.4823V27.3243H50.5426V26.9457H50.5209C50.4919 27.0064 50.4437 27.0713 50.3761 27.1405C50.3086 27.2096 50.2187 27.2685 50.1066 27.317C49.9944 27.3656 49.8575 27.3898 49.6959 27.3898ZM49.761 27.004C49.9299 27.004 50.0722 26.9706 50.188 26.9039C50.305 26.8371 50.393 26.751 50.4521 26.6454C50.5124 26.5398 50.5426 26.4288 50.5426 26.3123V25.9192C50.5245 25.941 50.4847 25.961 50.4232 25.9792C50.3629 25.9962 50.2929 26.0114 50.2133 26.0247C50.1349 26.0369 50.0583 26.0478 49.9836 26.0575C49.91 26.066 49.8503 26.0733 49.8045 26.0793C49.6935 26.0939 49.5898 26.1176 49.4933 26.1503C49.398 26.1819 49.3208 26.2298 49.2617 26.2941C49.2038 26.3572 49.1749 26.4434 49.1749 26.5526C49.1749 26.7018 49.2298 26.8147 49.3395 26.8911C49.4505 26.9663 49.591 27.004 49.761 27.004ZM49.4499 24.0627C49.3739 24.0627 49.3064 24.0335 49.2473 23.9753C49.1894 23.9158 49.1604 23.8479 49.1604 23.7714C49.1604 23.6877 49.1894 23.6186 49.2473 23.5639C49.3064 23.5081 49.3739 23.4802 49.4499 23.4802C49.5331 23.4802 49.6018 23.5081 49.6561 23.5639C49.7116 23.6186 49.7393 23.6877 49.7393 23.7714C49.7393 23.8479 49.7116 23.9158 49.6561 23.9753C49.6018 24.0335 49.5331 24.0627 49.4499 24.0627ZM50.4919 24.0627C50.4159 24.0627 50.3484 24.0335 50.2893 23.9753C50.2314 23.9158 50.2025 23.8479 50.2025 23.7714C50.2025 23.6877 50.2314 23.6186 50.2893 23.5639C50.3484 23.5081 50.4159 23.4802 50.4919 23.4802C50.5751 23.4802 50.6439 23.5081 50.6981 23.5639C50.7536 23.6186 50.7814 23.6877 50.7814 23.7714C50.7814 23.8479 50.7536 23.9158 50.6981 23.9753C50.6439 24.0335 50.5751 24.0627 50.4919 24.0627Z" fill="#333D4C"/>
<path d="M51.8252 27.3243V24.5286H52.2377V24.9509H52.2666C52.3173 24.8125 52.4089 24.7003 52.5416 24.6142C52.6742 24.528 52.8238 24.4849 52.9902 24.4849C53.0216 24.4849 53.0608 24.4855 53.1078 24.4867C53.1549 24.488 53.1904 24.4898 53.2146 24.4922V24.929C53.2001 24.9254 53.1669 24.9199 53.1151 24.9127C53.0644 24.9042 53.0107 24.8999 52.954 24.8999C52.819 24.8999 52.6984 24.9284 52.5922 24.9855C52.4873 25.0413 52.4041 25.1189 52.3426 25.2184C52.2823 25.3167 52.2521 25.429 52.2521 25.5552V27.3243H51.8252Z" fill="#333D4C"/>
<path d="M53.7175 27.3243V26.9967L55.295 24.9582V24.929H53.7681V24.5286H55.8449V24.8708L54.3108 26.8948V26.9239H55.8956V27.3243H53.7175Z" fill="#333D4C"/>
<path d="M57.8381 24.5286V24.8926H56.398V24.5286H57.8381ZM56.8177 23.8588H57.2447V26.5235C57.2447 26.6448 57.2622 26.7358 57.2971 26.7965C57.3333 26.8559 57.3792 26.896 57.4346 26.9166C57.4913 26.936 57.551 26.9457 57.6137 26.9457C57.6608 26.9457 57.6994 26.9433 57.7295 26.9384C57.7597 26.9324 57.7838 26.9275 57.8019 26.9239L57.8887 27.3097C57.8598 27.3207 57.8194 27.3316 57.7675 27.3425C57.7156 27.3546 57.6499 27.3607 57.5703 27.3607C57.4497 27.3607 57.3315 27.3346 57.2157 27.2824C57.1012 27.2303 57.0059 27.1508 56.9299 27.044C56.8551 26.9372 56.8177 26.8025 56.8177 26.6399V23.8588Z" fill="#333D4C"/>
<path d="M59.6919 27.3825C59.4242 27.3825 59.1932 27.3231 58.999 27.2042C58.8061 27.084 58.6571 26.9166 58.5522 26.7018C58.4485 26.4858 58.3966 26.2347 58.3966 25.9483C58.3966 25.6619 58.4485 25.4095 58.5522 25.1911C58.6571 24.9715 58.803 24.8004 58.99 24.6779C59.1781 24.5541 59.3976 24.4922 59.6485 24.4922C59.7932 24.4922 59.9361 24.5165 60.0772 24.565C60.2183 24.6135 60.3468 24.6924 60.4626 24.8016C60.5784 24.9096 60.6706 25.0528 60.7394 25.2312C60.8081 25.4095 60.8425 25.6292 60.8425 25.8901V26.0721H58.7005V25.7008H60.4083C60.4083 25.543 60.3769 25.4023 60.3142 25.2785C60.2527 25.1547 60.1647 25.057 60.0501 24.9855C59.9367 24.9139 59.8028 24.8781 59.6485 24.8781C59.4784 24.8781 59.3313 24.9205 59.2071 25.0055C59.084 25.0892 58.9894 25.1984 58.923 25.3331C58.8567 25.4678 58.8235 25.6122 58.8235 25.7663V26.0138C58.8235 26.225 58.8597 26.4039 58.9321 26.5508C59.0057 26.6964 59.1076 26.8074 59.2378 26.8838C59.3681 26.9591 59.5194 26.9967 59.6919 26.9967C59.8041 26.9967 59.9054 26.9809 59.9958 26.9494C60.0875 26.9166 60.1665 26.8681 60.2328 26.8038C60.2991 26.7382 60.3504 26.6569 60.3866 26.5599L60.7991 26.6763C60.7556 26.8171 60.6827 26.9409 60.5802 27.0476C60.4776 27.1532 60.351 27.2357 60.2002 27.2952C60.0495 27.3534 59.88 27.3825 59.6919 27.3825Z" fill="#333D4C"/>
<path d="M63.0776 27.3243V24.5286H63.5045V27.3243H63.0776ZM63.2946 24.0627C63.2114 24.0627 63.1397 24.0341 63.0794 23.9771C63.0203 23.9201 62.9907 23.8515 62.9907 23.7714C62.9907 23.6914 63.0203 23.6228 63.0794 23.5658C63.1397 23.5087 63.2114 23.4802 63.2946 23.4802C63.3779 23.4802 63.449 23.5087 63.5081 23.5658C63.5684 23.6228 63.5986 23.6914 63.5986 23.7714C63.5986 23.8515 63.5684 23.9201 63.5081 23.9771C63.449 24.0341 63.3779 24.0627 63.2946 24.0627Z" fill="#333D4C"/>
<path d="M64.7898 25.6425V27.3243H64.3629V24.5286H64.7754V24.9654H64.8115C64.8767 24.8235 64.9756 24.7094 65.1082 24.6233C65.2409 24.5359 65.4121 24.4922 65.622 24.4922C65.8101 24.4922 65.9748 24.531 66.1159 24.6087C66.257 24.6851 66.3667 24.8016 66.4451 24.9582C66.5235 25.1135 66.5627 25.31 66.5627 25.5479V27.3243H66.1358V25.577C66.1358 25.3574 66.0791 25.1863 65.9657 25.0637C65.8524 24.94 65.6968 24.8781 65.499 24.8781C65.3627 24.8781 65.2409 24.9078 65.1335 24.9673C65.0274 25.0267 64.9436 25.1135 64.8821 25.2275C64.8206 25.3416 64.7898 25.4799 64.7898 25.6425Z" fill="#333D4C"/>
<path d="M69.435 23.5967V27.3243H68.9864V23.5967H69.435Z" fill="#333D4C"/>
<path d="M70.7801 25.6425V27.3243H70.3531V23.5967H70.7801V24.9654H70.8163C70.8814 24.821 70.9791 24.7064 71.1093 24.6214C71.2408 24.5353 71.4157 24.4922 71.634 24.4922C71.8233 24.4922 71.9891 24.5304 72.1315 24.6069C72.2738 24.6821 72.3841 24.798 72.4625 24.9545C72.5421 25.1098 72.5819 25.3076 72.5819 25.5479V27.3243H72.155V25.577C72.155 25.3549 72.0977 25.1832 71.9831 25.0619C71.8697 24.9393 71.7123 24.8781 71.5109 24.8781C71.371 24.8781 71.2456 24.9078 71.1347 24.9673C71.0249 25.0267 70.9381 25.1135 70.8741 25.2275C70.8114 25.3416 70.7801 25.4799 70.7801 25.6425Z" fill="#333D4C"/>
<path d="M73.4394 27.3243V24.5286H73.8519V24.9509H73.8808C73.9315 24.8125 74.0231 24.7003 74.1558 24.6142C74.2885 24.528 74.438 24.4849 74.6044 24.4849C74.6358 24.4849 74.675 24.4855 74.722 24.4867C74.7691 24.488 74.8046 24.4898 74.8288 24.4922V24.929C74.8143 24.9254 74.7811 24.9199 74.7293 24.9127C74.6786 24.9042 74.6249 24.8999 74.5683 24.8999C74.4332 24.8999 74.3126 24.9284 74.2065 24.9855C74.1015 25.0413 74.0183 25.1189 73.9568 25.2184C73.8965 25.3167 73.8663 25.429 73.8663 25.5552V27.3243H73.4394Z" fill="#333D4C"/>
<path d="M76.4917 27.3825C76.224 27.3825 75.993 27.3231 75.7989 27.2042C75.6059 27.084 75.457 26.9166 75.352 26.7018C75.2483 26.4858 75.1964 26.2347 75.1964 25.9483C75.1964 25.6619 75.2483 25.4095 75.352 25.1911C75.457 24.9715 75.6029 24.8004 75.7898 24.6779C75.978 24.5541 76.1975 24.4922 76.4483 24.4922C76.5931 24.4922 76.736 24.5165 76.8771 24.565C77.0182 24.6135 77.1466 24.6924 77.2624 24.8016C77.3782 24.9096 77.4705 25.0528 77.5392 25.2312C77.6079 25.4095 77.6423 25.6292 77.6423 25.8901V26.0721H75.5004V25.7008H77.2081C77.2081 25.543 77.1768 25.4023 77.1141 25.2785C77.0526 25.1547 76.9645 25.057 76.8499 24.9855C76.7366 24.9139 76.6027 24.8781 76.4483 24.8781C76.2783 24.8781 76.1311 24.9205 76.0069 25.0055C75.8839 25.0892 75.7892 25.1984 75.7229 25.3331C75.6566 25.4678 75.6234 25.6122 75.6234 25.7663V26.0138C75.6234 26.225 75.6596 26.4039 75.7319 26.5508C75.8055 26.6964 75.9074 26.8074 76.0377 26.8838C76.1679 26.9591 76.3193 26.9967 76.4917 26.9967C76.6039 26.9967 76.7052 26.9809 76.7957 26.9494C76.8873 26.9166 76.9663 26.8681 77.0327 26.8038C77.099 26.7382 77.1502 26.6569 77.1864 26.5599L77.5989 26.6763C77.5555 26.8171 77.4825 26.9409 77.38 27.0476C77.2775 27.1532 77.1508 27.2357 77.0001 27.2952C76.8493 27.3534 76.6799 27.3825 76.4917 27.3825Z" fill="#333D4C"/>
<path d="M78.3682 27.3243V24.5286H78.7807V24.9509H78.8096C78.8603 24.8125 78.9519 24.7003 79.0846 24.6142C79.2173 24.528 79.3668 24.4849 79.5332 24.4849C79.5646 24.4849 79.6038 24.4855 79.6508 24.4867C79.6979 24.488 79.7334 24.4898 79.7576 24.4922V24.929C79.7431 24.9254 79.7099 24.9199 79.6581 24.9127C79.6074 24.9042 79.5537 24.8999 79.4971 24.8999C79.362 24.8999 79.2414 24.9284 79.1352 24.9855C79.0303 25.0413 78.9471 25.1189 78.8856 25.2184C78.8253 25.3167 78.7951 25.429 78.7951 25.5552V27.3243H78.3682Z" fill="#333D4C"/>
<path d="M81.9072 27.3243V23.5967H83.159C83.4485 23.5967 83.6861 23.6465 83.8718 23.746C84.0576 23.8442 84.195 23.9795 84.2843 24.1518C84.3735 24.3242 84.4182 24.5201 84.4182 24.7397C84.4182 24.9594 84.3735 25.1541 84.2843 25.324C84.195 25.4939 84.0582 25.6274 83.8736 25.7244C83.6891 25.8203 83.4533 25.8682 83.1663 25.8682H82.1532V25.4605H83.1518C83.3496 25.4605 83.5088 25.4314 83.6294 25.3731C83.7512 25.3149 83.8393 25.2324 83.8935 25.1256C83.949 25.0176 83.9767 24.889 83.9767 24.7397C83.9767 24.5905 83.949 24.4601 83.8935 24.3484C83.8381 24.2368 83.7494 24.1506 83.6276 24.09C83.5058 24.0281 83.3448 23.9971 83.1446 23.9971H82.3558V27.3243H81.9072ZM83.6511 25.6498L84.5629 27.3243H84.0419L83.1446 25.6498H83.6511Z" fill="#333D4C"/>
<path d="M86.3195 27.3825C86.0517 27.3825 85.8208 27.3231 85.6266 27.2042C85.4336 27.084 85.2847 26.9166 85.1798 26.7018C85.076 26.4858 85.0242 26.2347 85.0242 25.9483C85.0242 25.6619 85.076 25.4095 85.1798 25.1911C85.2847 24.9715 85.4306 24.8004 85.6176 24.6779C85.8057 24.5541 86.0252 24.4922 86.2761 24.4922C86.4208 24.4922 86.5637 24.5165 86.7048 24.565C86.8459 24.6135 86.9744 24.6924 87.0901 24.8016C87.2059 24.9096 87.2982 25.0528 87.3669 25.2312C87.4357 25.4095 87.4701 25.6292 87.4701 25.8901V26.0721H85.3281V25.7008H87.0359C87.0359 25.543 87.0045 25.4023 86.9418 25.2785C86.8803 25.1547 86.7923 25.057 86.6777 24.9855C86.5643 24.9139 86.4304 24.8781 86.2761 24.8781C86.106 24.8781 85.9589 24.9205 85.8346 25.0055C85.7116 25.0892 85.617 25.1984 85.5506 25.3331C85.4843 25.4678 85.4511 25.6122 85.4511 25.7663V26.0138C85.4511 26.225 85.4873 26.4039 85.5597 26.5508C85.6332 26.6964 85.7352 26.8074 85.8654 26.8838C85.9957 26.9591 86.147 26.9967 86.3195 26.9967C86.4316 26.9967 86.533 26.9809 86.6234 26.9494C86.7151 26.9166 86.7941 26.8681 86.8604 26.8038C86.9267 26.7382 86.978 26.6569 87.0142 26.5599L87.4266 26.6763C87.3832 26.8171 87.3103 26.9409 87.2077 27.0476C87.1052 27.1532 86.9786 27.2357 86.8278 27.2952C86.6771 27.3534 86.5076 27.3825 86.3195 27.3825Z" fill="#333D4C"/>
<path d="M89.3176 28.4309C89.1113 28.4309 88.934 28.4042 88.7857 28.3508C88.6373 28.2987 88.5137 28.2295 88.4148 28.1434C88.3171 28.0584 88.2393 27.9674 88.1814 27.8703L88.5216 27.6301C88.5602 27.681 88.609 27.7393 88.6681 27.8048C88.7272 27.8716 88.808 27.9292 88.9105 27.9777C89.0142 28.0275 89.1499 28.0524 89.3176 28.0524C89.5419 28.0524 89.727 27.9977 89.8729 27.8885C90.0189 27.7793 90.0918 27.6082 90.0918 27.3753V26.8074H90.0557C90.0243 26.8584 89.9797 26.9215 89.9218 26.9967C89.8651 27.0707 89.7831 27.1368 89.6758 27.1951C89.5696 27.2521 89.4261 27.2806 89.2452 27.2806C89.0209 27.2806 88.8195 27.2272 88.641 27.1205C88.4637 27.0137 88.3232 26.8584 88.2194 26.6545C88.1169 26.4507 88.0657 26.2031 88.0657 25.9119C88.0657 25.6255 88.1157 25.3762 88.2158 25.1638C88.3159 24.9503 88.4552 24.7852 88.6337 24.6688C88.8122 24.5511 89.0185 24.4922 89.2524 24.4922C89.4333 24.4922 89.5769 24.5225 89.683 24.5832C89.7903 24.6427 89.8723 24.7106 89.929 24.7871C89.9869 24.8623 90.0315 24.9242 90.0629 24.9727H90.1063V24.5286H90.5188V27.4044C90.5188 27.6446 90.4645 27.84 90.356 27.9905C90.2486 28.1421 90.1039 28.2532 89.9218 28.3235C89.7409 28.3951 89.5395 28.4309 89.3176 28.4309ZM89.3031 26.8948C89.4743 26.8948 89.6191 26.8553 89.7373 26.7765C89.8555 26.6976 89.9453 26.5841 90.0068 26.4361C90.0683 26.2881 90.0991 26.1109 90.0991 25.9046C90.0991 25.7032 90.0689 25.5254 90.0086 25.3713C89.9483 25.2172 89.8591 25.0965 89.7409 25.0091C89.6227 24.9218 89.4768 24.8781 89.3031 24.8781C89.1222 24.8781 88.9714 24.9242 88.8508 25.0164C88.7314 25.1086 88.6416 25.2324 88.5813 25.3877C88.5222 25.543 88.4926 25.7153 88.4926 25.9046C88.4926 26.0988 88.5228 26.2705 88.5831 26.4197C88.6446 26.5677 88.735 26.6842 88.8544 26.7692C88.975 26.8529 89.1246 26.8948 89.3031 26.8948Z" fill="#333D4C"/>
<path d="M91.3767 27.3243V24.5286H91.8037V27.3243H91.3767ZM91.5938 24.0627C91.5106 24.0627 91.4388 24.0341 91.3785 23.9771C91.3194 23.9201 91.2899 23.8515 91.2899 23.7714C91.2899 23.6914 91.3194 23.6228 91.3785 23.5658C91.4388 23.5087 91.5106 23.4802 91.5938 23.4802C91.677 23.4802 91.7482 23.5087 91.8073 23.5658C91.8676 23.6228 91.8977 23.6914 91.8977 23.7714C91.8977 23.8515 91.8676 23.9201 91.8073 23.9771C91.7482 24.0341 91.677 24.0627 91.5938 24.0627Z" fill="#333D4C"/>
<path d="M93.7909 27.3825C93.5401 27.3825 93.3199 27.3225 93.1306 27.2024C92.9425 27.0822 92.7953 26.9142 92.6892 26.6982C92.5843 26.4822 92.5318 26.2298 92.5318 25.941C92.5318 25.6498 92.5843 25.3956 92.6892 25.1784C92.7953 24.9612 92.9425 24.7925 93.1306 24.6724C93.3199 24.5523 93.5401 24.4922 93.7909 24.4922C94.0418 24.4922 94.2613 24.5523 94.4494 24.6724C94.6388 24.7925 94.7859 24.9612 94.8908 25.1784C94.997 25.3956 95.05 25.6498 95.05 25.941C95.05 26.2298 94.997 26.4822 94.8908 26.6982C94.7859 26.9142 94.6388 27.0822 94.4494 27.2024C94.2613 27.3225 94.0418 27.3825 93.7909 27.3825ZM93.7909 26.9967C93.9815 26.9967 94.1383 26.9475 94.2613 26.8493C94.3843 26.751 94.4753 26.6217 94.5344 26.4616C94.5935 26.3014 94.6231 26.1279 94.6231 25.941C94.6231 25.7542 94.5935 25.58 94.5344 25.4186C94.4753 25.2573 94.3843 25.1268 94.2613 25.0273C94.1383 24.9278 93.9815 24.8781 93.7909 24.8781C93.6004 24.8781 93.4436 24.9278 93.3206 25.0273C93.1975 25.1268 93.1065 25.2573 93.0474 25.4186C92.9883 25.58 92.9587 25.7542 92.9587 25.941C92.9587 26.1279 92.9883 26.3014 93.0474 26.4616C93.1065 26.6217 93.1975 26.751 93.3206 26.8493C93.4436 26.9475 93.6004 26.9967 93.7909 26.9967Z" fill="#333D4C"/>
<path d="M96.2051 25.6425V27.3243H95.7782V24.5286H96.1906V24.9654H96.2268C96.2919 24.8235 96.3908 24.7094 96.5235 24.6233C96.6562 24.5359 96.8274 24.4922 97.0373 24.4922C97.2254 24.4922 97.3901 24.531 97.5312 24.6087C97.6723 24.6851 97.782 24.8016 97.8604 24.9582C97.9388 25.1135 97.978 25.31 97.978 25.5479V27.3243H97.5511V25.577C97.5511 25.3574 97.4944 25.1863 97.381 25.0637C97.2676 24.94 97.1121 24.8781 96.9143 24.8781C96.778 24.8781 96.6562 24.9078 96.5488 24.9673C96.4427 25.0267 96.3589 25.1135 96.2974 25.2275C96.2359 25.3416 96.2051 25.4799 96.2051 25.6425Z" fill="#333D4C"/>
</svg>
